<?xml version="1.0" encoding="UTF-8"?>
<svg xmlns="http://www.w3.org/2000/svg" viewBox="0 0 1080 1080">
  <defs>
    <style>
      .cls-1, .cls-2 {
        stroke-width: 3px;
      }

      .cls-1, .cls-2, .cls-3, .cls-4 {
        stroke: #000;
      }

      .cls-1, .cls-2, .cls-3, .cls-4, .cls-5, .cls-6, .cls-7 {
        stroke-miterlimit: 10;
      }

      .cls-1, .cls-4, .cls-5, .cls-6 {
        fill: #fff;
      }

      .cls-2, .cls-3 {
        fill: #e5650e;
      }

      .cls-8 {
        font-size: 37px;
      }

      .cls-8, .cls-9 {
        font-family: CabinSketch-Regular, 'Cabin Sketch';
      }

      .cls-3 {
        stroke-width: 5px;
      }

      .cls-10 {
        letter-spacing: -.02em;
      }

      .cls-5 {
        stroke-width: 6px;
      }

      .cls-5, .cls-6, .cls-7 {
        stroke: #fff;
      }

      .cls-11 {
        letter-spacing: 0em;
      }

      .cls-12 {
        letter-spacing: 0em;
      }

      .cls-13 {
        letter-spacing: 0em;
      }

      .cls-6 {
        stroke-width: 10px;
      }

      .cls-14 {
        letter-spacing: 0em;
      }

      .cls-15 {
        letter-spacing: 0em;
      }

      .cls-9 {
        font-size: 118px;
      }

      .cls-16 {
        letter-spacing: -.01em;
      }
    </style>
  </defs>
  <g id="Layer_1" data-name="Layer 1">
    <path class="cls-3" d="M170.07,829.3h32.56l31.4-12.79,29.07-23.26s19.77-18.6,20.93-22.09c1.16-3.49,16.28-17.44,17.44-38.37s4.65-46.51,5.81-56.98c1.16-10.47,17.44-52.33,17.44-62.79s5.81-60.47,10.47-67.44c4.65-6.98,22.09-33.72,26.74-50,4.65-16.28,29.07-55.81,31.4-59.3,2.33-3.49,20.93-34.88,27.91-38.37,6.98-3.49,56.98-22.09,60.47-23.26,3.49-1.16,37.53-15.12,58.3-15.12s103.33-6.98,103.33-6.98c0,0,30.23,1.16,45.35,0s38.37-1.16,48.84,0c10.47,1.16,50,0,51.16,19.77,1.16,19.77,5.81,36.05,5.81,40.7v36.05s-17.44,11.63-24.42,16.28c-6.98,4.65-8.14,8.14-29.07,12.79-20.93,4.65-33.72,4.65-52.33,4.65s-43.02-4.65-54.65-2.33-51.16,11.63-51.16,11.63c0,0-16.28,9.3-33.72,16.28-17.44,6.98-29.07,13.95-41.86,24.42-12.79,10.47-34.88,36.05-39.53,45.35-4.65,9.3-15.12,25.58-24.42,39.53-9.3,13.95-12.79,12.79-17.44,27.91-4.65,15.12-3.49,25.58-6.98,44.19-3.49,18.6-4.65,37.21-9.3,51.16-4.65,13.95-9.3,18.6-9.3,40.7,0,12.13,1.75,14.45,1.99,18.49.24,4.14-.87,7.95-2.98,15.39-.75,2.63-1.34,4.48-1.34,4.48-6.95,21.82-7.5,26.45-11.42,33.86-2.44,4.61-5.65,9.12-10.68,14.98-13.95,16.28-31.4,29.07-52.33,32.56-20.93,3.49-48.84-4.65-60.47,0-11.63,4.65-27.91,2.33-45.35,5.81-17.44,3.49-55.81,0-74.42-4.65-18.6-4.65-36.05,1.16-43.02-8.14-6.98-9.3-19.77-51.16-19.77-61.63s-11.63-15.12,0-19.77,45.35-4.65,51.16,0c5.81,4.65,38.37,16.28,38.37,16.28Z"/>
    <ellipse id="Eye" class="cls-4" cx="743.33" cy="395" rx="27.91" ry="23.84"/>
    <circle id="Pupil" class="cls-7" cx="743.13" cy="397.17" r="19.14"/>
    <path class="cls-2" d="M398.02,813.34c-3.65-1.05-6.72-1.91-9.02-2.55-4-1.11-6.05-1.68-8.17-2.21-1.77-.44-1.94-.46-8-1.87-4-.93-6-1.4-6.47-1.53-4.16-1.17-7.32-2.49-9.87-3.57-3.09-1.31-3.85-1.79-6.3-2.89,0,0-5.83-2.62-12.77-4.6-10.06-2.86-10.8-1.02-17.19-3.74-2.17-.92-4.73-2.49-9.87-5.62-5.75-3.5-6.83-4.58-10.55-6.13-3.4-1.41-4.12-1.19-5.96-2.55-1.81-1.35-3.13-3.07-5.62-3.4-.71-.1-1.31-.05-1.7,0"/>
    <polyline class="cls-2" points="540 503.89 520.23 488.57 506.96 461 494.7 437.51 487.55 416.31 483.47 397.17 483.47 382.36 481.7 374.65"/>
    <text class="cls-9" transform="translate(364.09 774.47) rotate(-60)"><tspan x="0" y="0">S</tspan></text>
    <text class="cls-9" transform="translate(372.13 679.42) rotate(-30)"><tspan x="0" y="0">L</tspan></text>
    <text class="cls-9" transform="translate(392.33 612.47) rotate(-30)"><tspan x="0" y="0">U</tspan></text>
    <text class="cls-9" transform="translate(419.47 503.69)"><tspan x="0" y="0">G</tspan></text>
  </g>
  <g id="Layer_2" data-name="Layer 2">
    <path d="M557,501.85l1.11,34s7.66,33.85,12.26,43.04c4.6,9.19,15.32,40.61,15.32,47.11s21.45,66.25,21.45,66.25c0,0,24.51,44.43,27.57,49.02s13.79,29.11,13.79,29.11l12.26,45.96,22.98,38.3s38.3,21.45,39.06,24.51c.77,3.06,36,25.33,36,25.33,0,0,41.36-6.95,45.96-6.95s62.81,15.42,67.4,6.95c4.6-8.48,39.83-23.8,42.89-28.39,3.06-4.6,32.17-18.38,16.85-38.3-15.32-19.91-39.83-56.68-39.83-56.68,0,0-27.57-7.66-32.17-7.66s-19.91-1.53-30.64-1.53-39.83-3.06-39.83-3.06l-21.45-7.66s-32.17-7.66-36.77-18.38c-4.6-10.72-15.32-22.98-19.91-29.11-4.6-6.13-1.51-13.79-7.65-18.38l-6.14-4.6s5.86-1.53-2.43-9.19c-8.29-7.66-8.29-10.72-15.95-19.91-7.66-9.19-6.13-15.32-18.38-30.64s-13.79-22.98-21.45-35.23c-7.66-12.26-6.13-4.6-7.66-21.45s-1.53-19.91-3.06-27.57c-1.53-7.66-3.06-19.91-3.06-19.91l-1.53-26.04v-13.79c-11.77-1.17-23.55-2.34-35.32-3.51-10.55,6.13-21.11,12.26-31.66,18.38Z"/>
    <path class="cls-6" d="M708.6,869.13l89.11-99.45"/>
    <path class="cls-6" d="M819.41,900.22l89.11-99.45"/>
  </g>
  <g id="Layer_3" data-name="Layer 3">
    <path class="cls-5" d="M562.78,554.96c21.65-4.28,43.31-8.55,64.96-12.83"/>
    <path class="cls-5" d="M578.76,603.01c19.39-3.63,38.78-7.25,58.16-10.88"/>
    <path class="cls-5" d="M601.91,680.17c26.85-4.78,53.69-9.56,80.54-14.34"/>
    <path class="cls-5" d="M641.66,755.19c28.75-6.25,57.51-12.51,86.26-18.76"/>
    <text/>
    <path class="cls-1" d="M799.62,344.06c.24-6.73.52-14.96,3.22-24.51,2.52-8.94,6.16-15.52,21.7-36.77,15-20.51,22.5-30.76,28.65-36.77,5.97-5.82,17.34-16.75,35.23-26.04,21.52-11.17,40.47-13.74,53.03-15.32,4.36-.55,22.02-2.62,45.02,0,17.88,2.03,28.87,3.29,41.36,10.72,5.02,2.99,16.95,10.29,24.51,24.51,5.43,10.22,6.18,21.11,7.66,42.89.49,7.14.58,13.44.75,26.04.15,10.34.04,15.09.02,29.11-.06,32.69.48,29.35.09,33.23-.88,8.77-2.87,26.79-14.65,45.14-3.76,5.86-9.99,15.36-21.45,22.97-8.61,5.71-14.84,6.81-41.36,12.03-43.92,8.63-45.47,9.27-53.1,9.19-10.86-.12-25.56-.27-41.87-7.66-12.73-5.76-12.36-9.56-30.64-19.91-20.54-11.64-23.47-8.25-33.25-16.61-14.54-12.44-19.28-29.55-21.7-38.27-3.91-14.12-3.5-26.02-3.22-33.97Z"/>
    <text class="cls-8" transform="translate(927.77 244.46)"><tspan class="cls-13" x="0" y="0">I</tspan><tspan x="10.03" y="0">m</tspan><tspan x="-12.39" y="44.4">L</tspan><tspan class="cls-12" x="5.25" y="44.4">a</tspan><tspan class="cls-15" x="23.42" y="44.4">t</tspan><tspan x="37.04" y="44.4">e</tspan><tspan class="cls-10" x="-4.96" y="88.8">F</tspan><tspan x="12.47" y="88.8">or</tspan><tspan class="cls-13" x="-62.2" y="133.2">I</tspan><tspan class="cls-11" x="-52.17" y="133.2">m</tspan><tspan x="-19.46" y="133.2">porta</tspan><tspan class="cls-16" x="70.41" y="133.2">n</tspan><tspan x="91.24" y="133.2">t</tspan><tspan class="cls-14" x="-49.62" y="177.6">B</tspan><tspan x="-28.12" y="177.6">usiness</tspan></text>
  </g>
</svg>